<?xml version="1.0" encoding="UTF-8"?>
<svg xmlns="http://www.w3.org/2000/svg" xmlns:xlink="http://www.w3.org/1999/xlink" width="25px" height="25px" viewBox="0 0 25 25" version="1.1">
<g id="surface1">
<path style=" stroke:none;fill-rule:nonzero;fill:rgb(0%,0%,0%);fill-opacity:1;" d="M 24.570312 7.5 C 24.53125 6.25 24.296875 5.351562 24.023438 4.53125 C 23.75 3.710938 23.320312 3.046875 22.65625 2.382812 C 21.992188 1.71875 21.328125 1.328125 20.546875 1.015625 C 19.765625 0.703125 18.90625 0.507812 17.578125 0.46875 C 16.210938 0.390625 15.820312 0.390625 12.5 0.390625 C 9.179688 0.390625 8.828125 0.390625 7.5 0.429688 C 6.171875 0.46875 5.351562 0.703125 4.53125 0.976562 C 3.710938 1.25 3.046875 1.71875 2.382812 2.382812 C 1.71875 3.046875 1.289062 3.710938 1.015625 4.53125 C 0.703125 5.3125 0.507812 6.171875 0.46875 7.5 C 0.429688 8.828125 0.390625 9.179688 0.390625 12.5 C 0.390625 15.820312 0.390625 16.171875 0.429688 17.5 C 0.46875 18.828125 0.703125 19.648438 0.976562 20.46875 C 1.25 21.289062 1.679688 21.953125 2.34375 22.617188 C 3.007812 23.28125 3.710938 23.710938 4.492188 23.984375 C 5.273438 24.257812 6.132812 24.492188 7.460938 24.53125 C 8.789062 24.609375 9.140625 24.609375 12.460938 24.609375 C 15.78125 24.609375 16.132812 24.609375 17.460938 24.570312 C 18.789062 24.53125 19.609375 24.296875 20.429688 24.023438 C 21.25 23.75 21.914062 23.320312 22.578125 22.65625 C 23.242188 21.992188 23.671875 21.289062 23.945312 20.507812 C 24.21875 19.726562 24.453125 18.867188 24.492188 17.539062 C 24.53125 16.289062 24.53125 15.898438 24.53125 12.578125 C 24.53125 9.257812 24.609375 8.828125 24.570312 7.5 Z M 22.382812 17.382812 C 22.34375 18.554688 22.109375 19.179688 21.953125 19.648438 C 21.71875 20.195312 21.445312 20.625 21.015625 21.015625 C 20.585938 21.445312 20.195312 21.679688 19.648438 21.953125 C 19.21875 22.109375 18.59375 22.34375 17.382812 22.382812 C 16.132812 22.382812 15.742188 22.382812 12.539062 22.382812 C 9.335938 22.382812 8.90625 22.382812 7.65625 22.34375 C 6.484375 22.304688 5.859375 22.070312 5.390625 21.914062 C 4.84375 21.679688 4.414062 21.40625 4.023438 20.976562 C 3.59375 20.546875 3.359375 20.15625 3.085938 19.609375 C 2.929688 19.179688 2.695312 18.554688 2.65625 17.34375 C 2.65625 16.132812 2.65625 15.742188 2.65625 12.5 C 2.65625 9.257812 2.65625 8.867188 2.695312 7.617188 C 2.734375 6.445312 2.96875 5.820312 3.125 5.351562 C 3.359375 4.804688 3.632812 4.375 4.023438 3.984375 C 4.453125 3.554688 4.84375 3.320312 5.390625 3.085938 C 5.820312 2.929688 6.445312 2.695312 7.65625 2.65625 C 8.90625 2.617188 9.296875 2.617188 12.539062 2.617188 C 15.78125 2.617188 16.171875 2.617188 17.421875 2.65625 C 18.59375 2.695312 19.21875 2.929688 19.6875 3.085938 C 20.234375 3.320312 20.664062 3.59375 21.054688 3.984375 C 21.484375 4.414062 21.71875 4.804688 21.992188 5.351562 C 22.148438 5.78125 22.382812 6.40625 22.421875 7.617188 C 22.460938 8.867188 22.460938 9.257812 22.460938 12.5 C 22.460938 15.742188 22.421875 16.132812 22.382812 17.382812 Z M 22.382812 17.382812 "/>
<path style=" stroke:none;fill-rule:nonzero;fill:rgb(0%,0%,0%);fill-opacity:1;" d="M 12.5 6.289062 C 9.023438 6.289062 6.289062 9.101562 6.289062 12.5 C 6.289062 15.976562 9.101562 18.710938 12.5 18.710938 C 15.898438 18.710938 18.75 15.976562 18.75 12.5 C 18.75 9.023438 15.976562 6.289062 12.5 6.289062 Z M 12.5 16.5625 C 10.234375 16.5625 8.4375 14.726562 8.4375 12.5 C 8.4375 10.273438 10.273438 8.4375 12.5 8.4375 C 14.765625 8.4375 16.5625 10.234375 16.5625 12.5 C 16.5625 14.765625 14.765625 16.5625 12.5 16.5625 Z M 12.5 16.5625 "/>
<path style=" stroke:none;fill-rule:nonzero;fill:rgb(0%,0%,0%);fill-opacity:1;" d="M 20.46875 6.015625 C 20.46875 5.21875 19.820312 4.570312 19.023438 4.570312 C 18.226562 4.570312 17.578125 5.21875 17.578125 6.015625 C 17.578125 6.8125 18.226562 7.460938 19.023438 7.460938 C 19.820312 7.460938 20.46875 6.8125 20.46875 6.015625 Z M 20.46875 6.015625 "/>
</g>
</svg>
