<?xml version="1.0" encoding="UTF-8"?>
<svg xmlns="http://www.w3.org/2000/svg" xmlns:xlink="http://www.w3.org/1999/xlink" width="25px" height="25px" viewBox="0 0 25 25" version="1.1">
<g id="surface1">
<path style=" stroke:none;fill-rule:nonzero;fill:rgb(0%,0%,0%);fill-opacity:1;" d="M 21.09375 3.867188 C 18.828125 1.601562 15.742188 0.351562 12.578125 0.351562 C 5.9375 0.351562 0.507812 5.742188 0.507812 12.382812 C 0.507812 14.53125 1.054688 16.5625 2.109375 18.4375 L 0.390625 24.648438 L 6.835938 23.007812 C 8.59375 23.945312 10.585938 24.492188 12.617188 24.492188 C 19.21875 24.453125 24.609375 19.0625 24.609375 12.382812 C 24.609375 9.179688 23.359375 6.171875 21.09375 3.867188 Z M 12.539062 22.421875 C 10.78125 22.421875 8.945312 21.914062 7.421875 20.976562 L 7.03125 20.742188 L 3.242188 21.71875 L 4.296875 18.046875 L 4.0625 17.65625 C 3.085938 16.054688 2.539062 14.179688 2.539062 12.304688 C 2.539062 6.796875 6.992188 2.34375 12.539062 2.34375 C 15.195312 2.34375 17.695312 3.398438 19.570312 5.273438 C 21.445312 7.148438 22.5 9.6875 22.5 12.382812 C 22.578125 17.96875 18.046875 22.421875 12.539062 22.421875 Z M 18.046875 14.921875 C 17.734375 14.765625 16.289062 14.023438 15.9375 13.984375 C 15.664062 13.867188 15.429688 13.828125 15.273438 14.140625 C 15.117188 14.453125 14.492188 15.078125 14.335938 15.3125 C 14.179688 15.46875 14.023438 15.546875 13.671875 15.351562 C 13.359375 15.195312 12.421875 14.921875 11.25 13.828125 C 10.351562 13.046875 9.726562 12.070312 9.609375 11.71875 C 9.453125 11.40625 9.570312 11.289062 9.765625 11.09375 C 9.921875 10.9375 10.078125 10.78125 10.195312 10.546875 C 10.351562 10.390625 10.351562 10.234375 10.507812 10.039062 C 10.664062 9.882812 10.546875 9.648438 10.46875 9.492188 C 10.351562 9.335938 9.804688 7.851562 9.53125 7.226562 C 9.296875 6.601562 9.023438 6.71875 8.867188 6.71875 C 8.710938 6.71875 8.476562 6.71875 8.320312 6.71875 C 8.164062 6.71875 7.773438 6.757812 7.539062 7.109375 C 7.265625 7.421875 6.484375 8.164062 6.484375 9.648438 C 6.484375 11.132812 7.539062 12.5 7.734375 12.773438 C 7.890625 12.929688 9.882812 16.015625 12.851562 17.34375 C 13.554688 17.65625 14.101562 17.851562 14.570312 18.007812 C 15.273438 18.242188 15.9375 18.164062 16.445312 18.125 C 17.03125 18.085938 18.203125 17.421875 18.476562 16.679688 C 18.710938 16.015625 18.710938 15.351562 18.632812 15.234375 C 18.554688 15.15625 18.320312 15.039062 18.046875 14.921875 Z M 18.046875 14.921875 "/>
</g>
</svg>
