<?xml version="1.0" encoding="UTF-8"?>
<svg xmlns="http://www.w3.org/2000/svg" xmlns:xlink="http://www.w3.org/1999/xlink" width="25px" height="25px" viewBox="0 0 25 25" version="1.1">
<g id="surface1">
<path style=" stroke:none;fill-rule:nonzero;fill:rgb(0%,0%,0%);fill-opacity:1;" d="M 24.101562 6.679688 C 23.828125 5.625 23.007812 4.804688 21.953125 4.53125 C 20.078125 4.023438 12.5 4.023438 12.5 4.023438 C 12.5 4.023438 4.921875 4.023438 3.046875 4.53125 C 1.992188 4.804688 1.171875 5.625 0.898438 6.679688 C 0.390625 8.59375 0.390625 12.5 0.390625 12.5 C 0.390625 12.5 0.390625 16.445312 0.898438 18.320312 C 1.171875 19.375 1.992188 20.195312 3.046875 20.46875 C 4.921875 20.976562 12.5 20.976562 12.5 20.976562 C 12.5 20.976562 20.078125 20.976562 21.953125 20.46875 C 23.007812 20.195312 23.828125 19.375 24.101562 18.320312 C 24.609375 16.445312 24.609375 12.5 24.609375 12.5 C 24.609375 12.5 24.609375 8.59375 24.101562 6.679688 Z M 10.078125 16.132812 L 10.078125 8.867188 L 16.367188 12.5 Z M 10.078125 16.132812 "/>
</g>
</svg>
